<svg width="44" height="44" viewBox="0 0 44 44" fill="none" xmlns="http://www.w3.org/2000/svg">
<path d="M38.72 0H5.28C2.36393 0 0 2.36393 0 5.28V38.72C0 41.6361 2.36393 44 5.28 44H38.72C41.6361 44 44 41.6361 44 38.72V5.28C44 2.36393 41.6361 0 38.72 0Z" fill="url(#paint0_radial_1_601)"/>
<path fill-rule="evenodd" clip-rule="evenodd" d="M10.0661 11.7036C10.5815 11.1881 11.4173 11.1881 11.9328 11.7036L16.3328 16.1036C16.8483 16.6191 16.8483 17.4549 16.3328 17.9703L11.9328 22.3703C11.4173 22.8858 10.5815 22.8858 10.0661 22.3703C9.55053 21.8548 9.55053 21.0191 10.0661 20.5036L13.5327 17.037L10.0661 13.5703C9.55053 13.0549 9.55053 12.2191 10.0661 11.7036ZM34.0207 11.7036C34.5363 12.2191 34.5363 13.0549 34.0207 13.5703L30.5543 17.037L34.0207 20.5036C34.5363 21.0191 34.5363 21.8548 34.0207 22.3703C33.5053 22.8858 32.6696 22.8858 32.1541 22.3703L27.7541 17.9703C27.2386 17.4549 27.2386 16.6191 27.7541 16.1036L32.1541 11.7036C32.6696 11.1881 33.5053 11.1881 34.0207 11.7036ZM19.8457 20.177C20.5416 19.9596 21.2819 20.3473 21.4994 21.0433C21.5488 21.2018 21.6672 21.3259 21.9466 21.4252C22.0821 21.4734 22.2191 21.5001 22.3252 21.5137C22.375 21.52 22.4132 21.5229 22.4352 21.5243C22.4517 21.523 22.479 21.5206 22.5146 21.5156C22.6015 21.5035 22.7215 21.4789 22.8481 21.4319C23.0955 21.3398 23.3064 21.1904 23.4301 20.9079C23.7223 20.24 24.5006 19.9355 25.1685 20.2276C25.8364 20.5198 26.1409 21.2981 25.8487 21.966C25.3565 23.0915 24.4673 23.6461 23.7687 23.906C23.4222 24.0351 23.1079 24.0984 22.8784 24.1303C22.7624 24.1465 22.6643 24.1551 22.5901 24.1597C22.5528 24.162 22.5212 24.1634 22.4959 24.1641C22.4833 24.1644 22.4722 24.1646 22.4628 24.1648L22.4498 24.165H22.4443H22.4407C22.4399 24.165 22.4394 24.165 22.4394 22.845C22.4394 24.165 22.4389 24.165 22.4384 24.165H22.4373H22.435H22.4297L22.4174 24.1648C22.4083 24.1646 22.3974 24.1644 22.3847 24.1641C22.3593 24.1635 22.3272 24.1623 22.2889 24.1602C22.2128 24.1558 22.1107 24.1477 21.9899 24.1322C21.7523 24.1018 21.4216 24.0405 21.0622 23.9127C20.3517 23.66 19.37 23.0801 18.9794 21.8307C18.7621 21.1348 19.1498 20.3945 19.8457 20.177Z" fill="#1E293B"/>
<defs>
<radialGradient id="paint0_radial_1_601" cx="0" cy="0" r="1" gradientUnits="userSpaceOnUse" gradientTransform="rotate(45) scale(62.2254)">
<stop offset="0.576042" stop-color="#E2E8F0"/>
<stop offset="0.753125" stop-color="#D5BAEC"/>
<stop offset="1" stop-color="#7E22CE"/>
</radialGradient>
</defs>
</svg>
